# xmcd
#
# Track frame offsets:
# 150
# 21906
# 38704
# 53292
# 70832
# 85682
# 107521
# 119969
# 138084
# 159486
# 176479
# 186542
# 208312
# 225103
# 239705
# 257262
# 272112
# 293951
# 306483
# 324479
#
# Disc length: 4607 seconds
#
#
# Revision: 0
# Processed by: cddbd v1.5.2PL0 Copyright (c) Steve Scherf et al.
# Submitted via: FreeRIP 2.943 
#
DISCID=1d11fd14
DTITLE=Edison e cleomar - A resposta
DYEAR=1900
DGENRE=gospel
TTITLE0=A resposta
TTITLE1=Dia glorioso
TTITLE2=Gideões
TTITLE3=Volta pra Deus
TTITLE4=Aos pés de Jesus
TTITLE5=Conte pra Jesus
TTITLE6=A conquista
TTITLE7=Jesus de nazaré
TTITLE8=Melhor amigo
TTITLE9=Nunca mais
TTITLE10=Vitória é  nossa
TTITLE11=Play Back
TTITLE12=Play Back
TTITLE13=Play Back
TTITLE14=Play Back
TTITLE15=Play Back
TTITLE16=Play Back
TTITLE17=Play Back
TTITLE18=Play Back
TTITLE19=Play Back
EXTD=
EXTT0=
EXTT1=
EXTT2=
EXTT3=
EXTT4=
EXTT5=
EXTT6=
EXTT7=
EXTT8=
EXTT9=
EXTT10=
EXTT11=
EXTT12=
EXTT13=
EXTT14=
EXTT15=
EXTT16=
EXTT17=
EXTT18=
EXTT19=
PLAYORDER=
